<?xml version="1.0" encoding="UTF-8"?>
<!DOCTYPE svg PUBLIC "-//W3C//DTD SVG 1.1//EN" "http://www.w3.org/Graphics/SVG/1.1/DTD/svg11.dtd">
<svg xmlns="http://www.w3.org/2000/svg" version="1.1" width="512px" height="512px" style="shape-rendering:geometricPrecision; text-rendering:geometricPrecision; image-rendering:optimizeQuality; fill-rule:evenodd; clip-rule:evenodd" xmlns:xlink="http://www.w3.org/1999/xlink">
<g><path style="opacity:0.992" fill="#ff4437" d="M 146.5,-0.5 C 147.5,-0.5 148.5,-0.5 149.5,-0.5C 184.5,35.1667 219.833,70.5 255.5,105.5C 255.5,134.167 255.5,162.833 255.5,191.5C 219.535,156.035 183.701,120.368 148,84.5C 126.833,105.667 105.667,126.833 84.5,148C 120.347,183.68 156.014,219.514 191.5,255.5C 156.014,291.486 120.347,327.32 84.5,363C 105.667,384.167 126.833,405.333 148,426.5C 183.701,390.632 219.535,354.965 255.5,319.5C 255.5,348.167 255.5,376.833 255.5,405.5C 219.833,440.5 184.5,475.833 149.5,511.5C 148.5,511.5 147.5,511.5 146.5,511.5C 97.8333,462.167 48.8333,413.167 -0.5,364.5C -0.5,363.5 -0.5,362.5 -0.5,361.5C 35.1457,326.521 70.479,291.188 105.5,255.5C 70.479,219.812 35.1457,184.479 -0.5,149.5C -0.5,148.5 -0.5,147.5 -0.5,146.5C 48.8333,97.8333 97.8333,48.8333 146.5,-0.5 Z"/></g>
<g><path style="opacity:0.989" fill="#ff0037" d="M 361.5,-0.5 C 362.5,-0.5 363.5,-0.5 364.5,-0.5C 413.167,48.8333 462.167,97.8333 511.5,146.5C 511.5,147.5 511.5,148.5 511.5,149.5C 475.854,184.479 440.521,219.812 405.5,255.5C 440.521,291.188 475.854,326.521 511.5,361.5C 511.5,362.5 511.5,363.5 511.5,364.5C 462.167,413.167 413.167,462.167 364.5,511.5C 363.5,511.5 362.5,511.5 361.5,511.5C 326.5,475.833 291.167,440.5 255.5,405.5C 255.5,376.833 255.5,348.167 255.5,319.5C 291.465,354.965 327.299,390.632 363,426.5C 384.167,405.333 405.333,384.167 426.5,363C 390.653,327.32 354.986,291.486 319.5,255.5C 354.986,219.514 390.653,183.68 426.5,148C 405.333,126.833 384.167,105.667 363,84.5C 327.299,120.368 291.465,156.035 255.5,191.5C 255.5,162.833 255.5,134.167 255.5,105.5C 291.167,70.5 326.5,35.1667 361.5,-0.5 Z"/></g>
<g><path style="opacity:1" fill="#fffefe" d="M 255.5,191.5 C 255.5,234.167 255.5,276.833 255.5,319.5C 219.535,354.965 183.701,390.632 148,426.5C 126.833,405.333 105.667,384.167 84.5,363C 120.347,327.32 156.014,291.486 191.5,255.5C 156.014,219.514 120.347,183.68 84.5,148C 105.667,126.833 126.833,105.667 148,84.5C 183.701,120.368 219.535,156.035 255.5,191.5 Z"/></g>
<g><path style="opacity:1" fill="#ffedbb" d="M 255.5,319.5 C 255.5,276.833 255.5,234.167 255.5,191.5C 291.465,156.035 327.299,120.368 363,84.5C 384.167,105.667 405.333,126.833 426.5,148C 390.653,183.68 354.986,219.514 319.5,255.5C 354.986,291.486 390.653,327.32 426.5,363C 405.333,384.167 384.167,405.333 363,426.5C 327.299,390.632 291.465,354.965 255.5,319.5 Z"/></g>
</svg>
